<?xml version="1.0" encoding="iso-8859-1"?>
<!-- Generator: Adobe Illustrator 19.0.0, SVG Export Plug-In . SVG Version: 6.00 Build 0)  -->
<svg version="1.1" id="Capa_1" xmlns="http://www.w3.org/2000/svg" xmlns:xlink="http://www.w3.org/1999/xlink" x="0px" y="0px"
	 viewBox="0 0 512.002 512.002" style="enable-background:new 0 0 512.002 512.002;" xml:space="preserve">
<g>
	<rect x="136.53" y="76.8" style="fill:#D4E1F4;" width="51.2" height="25.6"/>
	<rect x="324.27" y="76.8" style="fill:#D4E1F4;" width="51.2" height="25.6"/>
</g>
<path style="fill:#E3E7F2;" d="M307.201,17.069h-102.4c-32.974,0.038-59.695,26.759-59.733,59.733h34.133
	c0.015-14.132,11.468-25.585,25.6-25.6h102.4c14.132,0.015,25.585,11.468,25.6,25.6h34.133
	C366.896,43.828,340.175,17.107,307.201,17.069z"/>
<polygon style="fill:#D4E1F4;" points="477.868,443.734 477.868,170.669 429.902,202.447 429.902,247.469 384.001,247.469 
	384.001,223.635 256.001,273.069 139.768,223.635 139.768,247.469 93.868,247.469 93.868,202.447 34.134,170.669 34.134,443.734 "/>
<polygon style="fill:#FFFFFF;" points="8.534,170.669 8.534,443.734 34.134,443.734 34.134,181.259 "/>
<polygon style="fill:#7FACFA;" points="477.868,181.259 477.868,443.734 503.468,443.734 503.468,170.669 "/>
<path style="fill:#E3E7F2;" d="M80.038,494.935h351.926c25.352,0,45.903-22.923,45.903-51.2H34.134
	C34.134,472.012,54.686,494.935,80.038,494.935z"/>
<path style="fill:#FFFFFF;" d="M34.134,443.734h-25.6c0,28.277,22.923,51.2,51.2,51.2h20.304
	C54.686,494.935,34.134,472.012,34.134,443.734z"/>
<path style="fill:#7FACFA;" d="M477.868,443.734c0,28.277-20.552,51.2-45.904,51.2h20.304c28.277,0,51.2-22.923,51.2-51.2H477.868z"
	/>
<path style="fill:#E3E7F2;" d="M431.964,102.402H80.038c-25.352,0-45.903,22.923-45.903,51.2v17.067l47.963,31.779v-23.246h45.903
	v44.432l128,49.434l128-49.434v-44.432h45.903v23.246l47.963-31.779v-17.067C477.868,125.325,457.316,102.402,431.964,102.402z"/>
<path style="fill:#FFFFFF;" d="M34.134,170.669v-17.067c0-28.277,20.552-51.2,45.904-51.2H59.734c-28.277,0-51.2,22.923-51.2,51.2
	v17.067l68.179,28.212L34.134,170.669z"/>
<g>
	<path style="fill:#7FACFA;" d="M452.268,102.402h-20.304c25.352,0,45.904,22.923,45.904,51.2v17.067l-42.579,28.212l68.179-28.212
		v-17.067C503.468,125.325,480.545,102.402,452.268,102.402L452.268,102.402z"/>
	<rect x="85.33" y="179.2" style="fill:#7FACFA;" width="25.6" height="68.27"/>
	<rect x="110.93" y="179.2" style="fill:#7FACFA;" width="25.6" height="68.27"/>
	<rect x="375.47" y="179.2" style="fill:#7FACFA;" width="25.6" height="68.27"/>
	<rect x="401.07" y="179.2" style="fill:#7FACFA;" width="25.6" height="68.27"/>
</g>
<g>
	<path style="fill:#428DFF;" d="M452.268,503.469H59.734c-32.974-0.039-59.695-26.76-59.733-59.734
		C0,441.471,0.899,439.301,2.5,437.7s3.771-2.499,6.035-2.499h494.933c2.263-0.001,4.434,0.898,6.035,2.499
		c1.6,1.6,2.499,3.771,2.499,6.035C511.963,476.709,485.242,503.43,452.268,503.469L452.268,503.469z M17.926,452.269
		c4.081,19.851,21.542,34.107,41.808,34.133h392.533c20.266-0.026,37.727-14.282,41.808-34.133H17.926z"/>
	<path style="fill:#428DFF;" d="M136.534,256.002h-51.2c-2.263,0.001-4.434-0.898-6.035-2.499c-1.6-1.6-2.499-3.771-2.499-6.035
		v-68.266c-0.001-2.263,0.898-4.434,2.499-6.035c1.6-1.6,3.771-2.499,6.035-2.499h51.2c2.263-0.001,4.434,0.898,6.035,2.499
		c1.6,1.6,2.499,3.771,2.499,6.035v68.267c0.001,2.263-0.898,4.434-2.499,6.035C140.969,255.104,138.798,256.003,136.534,256.002
		L136.534,256.002z M93.868,238.935h34.133v-51.2H93.868V238.935z"/>
	<path style="fill:#428DFF;" d="M426.668,256.002h-51.2c-2.263,0.001-4.434-0.898-6.035-2.499c-1.6-1.6-2.499-3.771-2.499-6.035
		v-68.266c-0.001-2.263,0.898-4.434,2.499-6.035c1.6-1.6,3.771-2.499,6.035-2.499h51.2c2.263-0.001,4.434,0.898,6.035,2.499
		c1.6,1.6,2.499,3.771,2.499,6.035v68.267c0.001,2.263-0.898,4.434-2.499,6.035C431.102,255.104,428.931,256.003,426.668,256.002
		L426.668,256.002z M384.001,238.935h34.133v-51.2h-34.133V238.935z"/>
	<path style="fill:#428DFF;" d="M256.001,281.602c-1.12,0-2.228-0.221-3.262-0.65l-119.467-49.434
		c-3.191-1.319-5.272-4.431-5.271-7.883v-35.9H93.868v14.717c-0.001,2.849-1.424,5.509-3.792,7.092s-5.371,1.88-8.003,0.791
		l-76.8-31.783c-3.191-1.319-5.272-4.431-5.271-7.883v-17.067c0.038-32.974,26.759-59.695,59.733-59.733h392.533
		c32.974,0.038,59.695,26.759,59.733,59.733v17.067c0.001,3.452-2.08,6.565-5.271,7.883l-76.8,31.783
		c-2.633,1.089-5.635,0.792-8.003-0.791s-3.791-4.243-3.792-7.092v-14.717h-34.134v35.9c0.001,3.452-2.08,6.565-5.271,7.883
		l-119.467,49.434C258.229,281.381,257.121,281.602,256.001,281.602L256.001,281.602z M145.068,217.935l110.933,45.901l110.933-45.9
		v-38.734c-0.001-2.263,0.898-4.434,2.499-6.035c1.6-1.6,3.771-2.499,6.035-2.499h51.2c2.263-0.001,4.434,0.898,6.035,2.499
		c1.6,1.6,2.499,3.771,2.499,6.035v10.483l59.733-24.717v-11.366c-0.028-23.553-19.114-42.639-42.667-42.667H59.734
		c-23.553,0.028-42.639,19.114-42.667,42.667v11.366l59.734,24.717v-10.483c-0.001-2.263,0.898-4.434,2.499-6.035
		c1.6-1.6,3.771-2.499,6.035-2.499h51.2c2.263-0.001,4.434,0.898,6.035,2.499c1.6,1.6,2.499,3.771,2.499,6.035L145.068,217.935
		L145.068,217.935z"/>
	<path style="fill:#428DFF;" d="M503.468,452.269H8.534c-2.263,0.001-4.434-0.898-6.035-2.499c-1.6-1.6-2.499-3.771-2.499-6.035
		V170.669c0.001-2.849,1.424-5.509,3.792-7.092c2.369-1.583,5.371-1.88,8.003-0.791l76.8,31.783
		c3.191,1.319,5.272,4.431,5.271,7.883v36.483h34.135v-15.3c0.001-2.849,1.424-5.509,3.792-7.092
		c2.369-1.583,5.371-1.88,8.003-0.791l116.205,48.084l116.204-48.084c2.633-1.088,5.635-0.792,8.003,0.791
		c2.369,1.583,3.791,4.243,3.793,7.092v15.3h34.133v-36.483c-0.001-3.452,2.08-6.565,5.271-7.883l76.8-31.783
		c2.633-1.088,5.635-0.792,8.003,0.791c2.369,1.583,3.791,4.243,3.792,7.092v273.067c0.001,2.263-0.898,4.434-2.499,6.035
		C507.902,451.37,505.731,452.269,503.468,452.269z M17.068,435.202h477.867V183.435l-59.734,24.717v39.317
		c0.001,2.263-0.898,4.434-2.499,6.035c-1.6,1.6-3.771,2.499-6.035,2.499h-51.2c-2.263,0.001-4.434-0.898-6.035-2.499
		c-1.6-1.6-2.499-3.771-2.499-6.035v-11.067l-107.671,44.55c-2.089,0.867-4.436,0.867-6.525,0l-107.669-44.55v11.067
		c0.001,2.263-0.898,4.434-2.499,6.035c-1.6,1.6-3.771,2.499-6.035,2.499h-51.2c-2.263,0.001-4.434-0.898-6.035-2.499
		c-1.6-1.6-2.499-3.771-2.499-6.035v-39.317l-59.733-24.717L17.068,435.202L17.068,435.202z"/>
	<path style="fill:#428DFF;" d="M187.734,110.935h-51.2c-2.263,0.001-4.434-0.898-6.035-2.499c-1.6-1.6-2.499-3.771-2.499-6.035
		V76.802c-0.001-2.263,0.898-4.434,2.499-6.035c1.6-1.6,3.771-2.499,6.035-2.499h51.2c2.263-0.001,4.434,0.898,6.035,2.499
		c1.6,1.6,2.499,3.771,2.499,6.035v25.6c0.001,2.263-0.898,4.434-2.499,6.035S189.998,110.936,187.734,110.935L187.734,110.935z
		 M145.068,93.869h34.133v-8.533h-34.133V93.869z"/>
	<path style="fill:#428DFF;" d="M375.468,110.935h-51.2c-2.263,0.001-4.434-0.898-6.035-2.499s-2.499-3.771-2.499-6.035V76.802
		c-0.001-2.263,0.898-4.434,2.499-6.035c1.6-1.6,3.771-2.499,6.035-2.499h51.2c2.263-0.001,4.434,0.898,6.035,2.499
		c1.6,1.6,2.499,3.771,2.499,6.035v25.6c0.001,2.263-0.898,4.434-2.499,6.035S377.731,110.936,375.468,110.935L375.468,110.935z
		 M332.801,93.869h34.133v-8.533h-34.133V93.869z"/>
	<path style="fill:#428DFF;" d="M366.934,85.335h-34.133c-2.263,0.001-4.434-0.898-6.035-2.499c-1.6-1.6-2.499-3.771-2.499-6.035
		c-0.011-9.421-7.645-17.056-17.067-17.067H204.801c-9.421,0.011-17.056,7.645-17.067,17.067c0.001,2.263-0.898,4.434-2.499,6.035
		c-1.6,1.6-3.771,2.499-6.035,2.499h-34.133c-2.263,0.001-4.434-0.898-6.035-2.499s-2.499-3.771-2.499-6.035
		c0.043-37.685,30.582-68.224,68.267-68.267h102.4c37.685,0.043,68.224,30.582,68.267,68.267c0.001,2.263-0.898,4.434-2.499,6.035
		C371.369,84.437,369.198,85.336,366.934,85.335L366.934,85.335z M340.255,68.269h17.434c-4.196-24.618-25.515-42.634-50.488-42.667
		h-102.4c-24.973,0.033-46.291,18.049-50.487,42.667h17.434c3.911-15.06,17.495-25.581,33.054-25.6h102.4
		C322.76,42.688,336.345,53.209,340.255,68.269L340.255,68.269z"/>
</g>
<g>
</g>
<g>
</g>
<g>
</g>
<g>
</g>
<g>
</g>
<g>
</g>
<g>
</g>
<g>
</g>
<g>
</g>
<g>
</g>
<g>
</g>
<g>
</g>
<g>
</g>
<g>
</g>
<g>
</g>
</svg>
